<svg aria-hidden="true" style="position: absolute; width: 0; height: 0; overflow: hidden;" version="1.1" xmlns="http://www.w3.org/2000/svg" xmlns:xlink="http://www.w3.org/1999/xlink">
  <defs>
    <symbol id="icon-bag" viewBox="0 0 32 32">
      <path d="M5.333 28c-0.733 0-1.361-0.261-1.883-0.783s-0.783-1.15-0.783-1.883v-14.667c0-0.733 0.261-1.361 0.783-1.883s1.15-0.783 1.883-0.783h5.333v-2.667c0-0.733 0.261-1.361 0.783-1.883s1.15-0.783 1.883-0.783h5.333c0.733 0 1.361 0.261 1.883 0.783s0.783 1.15 0.783 1.883v2.667h5.333c0.733 0 1.361 0.261 1.883 0.783s0.783 1.15 0.783 1.883v14.667c0 0.733-0.261 1.361-0.783 1.883s-1.15 0.783-1.883 0.783h-21.333zM13.333 8h5.333v-2.667h-5.333v2.667zM8 10.667h-2.667v14.667h2.667v-14.667zM21.333 25.333v-14.667h-10.667v14.667h10.667zM24 10.667v14.667h2.667v-14.667h-2.667z"></path>
    </symbol>
    <symbol id="icon-brain" viewBox="0 0 32 32">
      <path d="M13 28c-1.133 0-2.111-0.394-2.933-1.183s-1.289-1.739-1.4-2.85c-1.333-0.178-2.444-0.767-3.333-1.767s-1.333-2.178-1.333-3.533c0-0.467 0.061-0.928 0.183-1.383s0.306-0.883 0.55-1.283c-0.244-0.4-0.428-0.822-0.55-1.267s-0.183-0.911-0.183-1.4c0-1.356 0.444-2.528 1.333-3.517s1.989-1.572 3.3-1.75c0.067-1.133 0.522-2.094 1.367-2.883s1.844-1.183 3-1.183c0.578 0 1.117 0.111 1.617 0.333s0.961 0.522 1.383 0.9c0.4-0.378 0.856-0.678 1.367-0.9s1.056-0.333 1.633-0.333c1.156 0 2.15 0.389 2.983 1.167s1.283 1.733 1.35 2.867c1.311 0.178 2.417 0.767 3.317 1.767s1.35 2.178 1.35 3.533c0 0.489-0.061 0.956-0.183 1.4s-0.306 0.867-0.55 1.267c0.244 0.4 0.428 0.828 0.55 1.283s0.183 0.917 0.183 1.383c0 1.378-0.45 2.561-1.35 3.55s-2.017 1.572-3.35 1.75c-0.111 1.111-0.572 2.061-1.383 2.85s-1.783 1.183-2.917 1.183c-0.556 0-1.094-0.106-1.617-0.317s-0.983-0.506-1.383-0.883c-0.422 0.378-0.889 0.672-1.4 0.883s-1.044 0.317-1.6 0.317zM17.333 8.333v15.333c0 0.467 0.161 0.861 0.483 1.183s0.717 0.483 1.183 0.483c0.444 0 0.828-0.178 1.15-0.533s0.494-0.756 0.517-1.2c-0.467-0.178-0.894-0.417-1.283-0.717s-0.739-0.661-1.050-1.083c-0.222-0.311-0.306-0.644-0.25-1s0.239-0.644 0.55-0.867c0.311-0.222 0.644-0.306 1-0.25s0.644 0.239 0.867 0.55c0.244 0.356 0.556 0.628 0.933 0.817s0.789 0.283 1.233 0.283c0.733 0 1.361-0.261 1.883-0.783s0.783-1.15 0.783-1.883c0-0.111-0.006-0.222-0.017-0.333s-0.039-0.222-0.083-0.333c-0.378 0.222-0.783 0.389-1.217 0.5s-0.883 0.167-1.35 0.167c-0.378 0-0.694-0.128-0.95-0.383s-0.383-0.572-0.383-0.95c0-0.378 0.128-0.694 0.383-0.95s0.572-0.383 0.95-0.383c0.733 0 1.361-0.261 1.883-0.783s0.783-1.15 0.783-1.883c0-0.733-0.261-1.356-0.783-1.867s-1.15-0.778-1.883-0.8c-0.244 0.4-0.561 0.75-0.95 1.050s-0.817 0.539-1.283 0.717c-0.356 0.133-0.7 0.122-1.033-0.033s-0.556-0.411-0.667-0.767c-0.111-0.356-0.094-0.7 0.050-1.033s0.394-0.556 0.75-0.667c0.333-0.111 0.606-0.311 0.817-0.6s0.317-0.622 0.317-1c0-0.467-0.161-0.861-0.483-1.183s-0.717-0.483-1.183-0.483c-0.467 0-0.861 0.161-1.183 0.483s-0.483 0.717-0.483 1.183zM14.667 23.667v-15.333c0-0.467-0.161-0.861-0.483-1.183s-0.717-0.483-1.183-0.483c-0.467 0-0.861 0.161-1.183 0.483s-0.483 0.717-0.483 1.183c0 0.356 0.1 0.683 0.3 0.983s0.467 0.506 0.8 0.617c0.356 0.111 0.611 0.333 0.767 0.667s0.178 0.678 0.067 1.033c-0.133 0.356-0.367 0.611-0.7 0.767s-0.678 0.167-1.033 0.033c-0.467-0.178-0.894-0.417-1.283-0.717s-0.706-0.65-0.95-1.050c-0.711 0.022-1.328 0.294-1.85 0.817s-0.783 1.139-0.783 1.85c0 0.733 0.261 1.361 0.783 1.883s1.15 0.783 1.883 0.783c0.378 0 0.694 0.128 0.95 0.383s0.383 0.572 0.383 0.95c0 0.378-0.128 0.694-0.383 0.95s-0.572 0.383-0.95 0.383c-0.467 0-0.917-0.056-1.35-0.167s-0.839-0.278-1.217-0.5c-0.044 0.111-0.072 0.222-0.083 0.333s-0.017 0.222-0.017 0.333c0 0.733 0.261 1.361 0.783 1.883s1.15 0.783 1.883 0.783c0.444 0 0.856-0.094 1.233-0.283s0.689-0.461 0.933-0.817c0.222-0.311 0.511-0.494 0.867-0.55s0.689 0.028 1 0.25c0.311 0.222 0.494 0.511 0.55 0.867s-0.028 0.689-0.25 1c-0.311 0.422-0.667 0.789-1.067 1.1s-0.833 0.556-1.3 0.733c0.022 0.444 0.2 0.839 0.533 1.183s0.722 0.517 1.167 0.517c0.467 0 0.861-0.161 1.183-0.483s0.483-0.717 0.483-1.183z"></path>
    </symbol>
    <symbol id="icon-burger-menu" viewBox="0 0 32 32">
      <path stroke-linejoin="round" stroke-linecap="round" stroke-miterlimit="4" stroke-width="2.6667" d="M5.333 26.667h21.333M5.333 16h21.333M5.333 5.333h21.333"></path>
    </symbol>
    <symbol id="icon-clock" viewBox="0 0 32 32">
      <path stroke-linejoin="round" stroke-linecap="round" stroke-miterlimit="4" stroke-width="2.6667" d="M20.667 16h-4.667v-6.667M4 16c0 1.576 0.31 3.136 0.913 4.592s1.487 2.779 2.601 3.893c1.114 1.114 2.437 1.998 3.893 2.601s3.016 0.913 4.592 0.913c1.576 0 3.136-0.31 4.592-0.913s2.779-1.487 3.893-2.601c1.114-1.114 1.998-2.437 2.601-3.893s0.913-3.016 0.913-4.592-0.31-3.136-0.913-4.592c-0.603-1.456-1.487-2.779-2.601-3.893s-2.437-1.998-3.893-2.601c-1.456-0.603-3.016-0.913-4.592-0.913s-3.136 0.31-4.592 0.913c-1.456 0.603-2.779 1.487-3.893 2.601s-1.998 2.437-2.601 3.893c-0.603 1.456-0.913 3.016-0.913 4.592z"></path>
    </symbol>
    <symbol id="icon-close" viewBox="0 0 32 32">
      <path d="M8.533 25.333l-1.867-1.867 7.467-7.467-7.467-7.467 1.867-1.867 7.467 7.467 7.467-7.467 1.867 1.867-7.467 7.467 7.467 7.467-1.867 1.867-7.467-7.467-7.467 7.467z"></path>
    </symbol>
    <symbol id="icon-discount-check" viewBox="0 0 32 32">
      <path d="M16.014 2.681c1.037 0 2.039 0.378 2.817 1.063l0.205 0.193 0.931 0.931c0.255 0.254 0.589 0.414 0.947 0.455l0.18 0.011h1.333c1.090-0 2.138 0.417 2.93 1.165s1.268 1.771 1.33 2.859l0.007 0.243v1.333c0 0.36 0.123 0.711 0.344 0.991l0.12 0.133 0.929 0.931c0.77 0.766 1.219 1.797 1.256 2.883s-0.343 2.144-1.060 2.96l-0.193 0.205-0.931 0.931c-0.254 0.255-0.414 0.589-0.455 0.947l-0.011 0.18v1.333c0 1.090-0.417 2.138-1.165 2.93s-1.771 1.268-2.859 1.33l-0.243 0.007h-1.333c-0.359 0-0.708 0.121-0.991 0.344l-0.133 0.12-0.931 0.929c-0.766 0.77-1.797 1.219-2.883 1.256s-2.144-0.343-2.96-1.060l-0.205-0.193-0.931-0.931c-0.255-0.254-0.589-0.414-0.947-0.455l-0.18-0.011h-1.333c-1.090 0-2.138-0.417-2.93-1.165s-1.268-1.771-1.33-2.859l-0.007-0.243v-1.333c-0-0.359-0.121-0.709-0.344-0.991l-0.12-0.133-0.929-0.931c-0.77-0.766-1.219-1.797-1.256-2.883s0.343-2.144 1.060-2.96l0.193-0.205 0.931-0.931c0.254-0.255 0.414-0.589 0.455-0.947l0.011-0.18v-1.333l0.007-0.243c0.060-1.046 0.502-2.034 1.243-2.775s1.728-1.183 2.775-1.243l0.243-0.007h1.333c0.36-0 0.708-0.121 0.991-0.344l0.133-0.12 0.931-0.929c0.396-0.399 0.868-0.715 1.387-0.931s1.076-0.327 1.638-0.327zM20.943 12.391c-0.25-0.25-0.589-0.39-0.943-0.39s-0.693 0.14-0.943 0.39l-4.391 4.389-1.724-1.723-0.125-0.111c-0.268-0.207-0.605-0.305-0.942-0.273s-0.65 0.191-0.874 0.445c-0.224 0.254-0.343 0.584-0.333 0.923s0.149 0.661 0.388 0.901l2.667 2.667 0.125 0.111c0.257 0.199 0.577 0.298 0.901 0.277s0.629-0.158 0.859-0.388l5.333-5.333 0.111-0.125c0.199-0.257 0.298-0.577 0.277-0.901s-0.158-0.63-0.388-0.859z"></path>
    </symbol>
    <symbol id="icon-facebook" viewBox="0 0 32 32">
      <path d="M16.001 2.667c-7.364 0-13.333 6.006-13.333 13.414 0 6.695 4.876 12.245 11.251 13.252v-9.375h-3.387v-3.877h3.387v-2.955c0-3.362 1.989-5.218 5.036-5.218 1.459 0 2.984 0.262 2.984 0.262v3.3h-1.68c-1.657 0-2.173 1.034-2.173 2.095v2.517h3.697l-0.591 3.877h-3.107v9.375c6.373-1.006 11.249-6.558 11.249-13.252 0-7.409-5.969-13.415-13.333-13.415z"></path>
    </symbol>
    <symbol id="icon-garden-cart" viewBox="0 0 32 32">
      <path d="M9.733 28c-0.844 0-1.567-0.306-2.167-0.917s-0.9-1.339-0.9-2.183v-12.367l-2.433-5.867h-2.9v-2.667h4.7l2.2 5.333h19.7c0.511 0 0.9 0.211 1.167 0.633s0.278 0.856 0.033 1.3l-3.8 7.433c1.133 0.178 2.083 0.7 2.85 1.567s1.15 1.889 1.15 3.067c0 1.289-0.45 2.389-1.35 3.3s-1.994 1.367-3.283 1.367c-1.311 0-2.417-0.456-3.317-1.367s-1.35-2.011-1.35-3.3c0-0.444 0.056-0.856 0.167-1.233s0.267-0.744 0.467-1.1l-4.367-0.4-4 6c-0.289 0.444-0.661 0.789-1.117 1.033s-0.939 0.367-1.45 0.367zM22.467 18.5l3.3-6.5h-16.433l1.667 4c0.178 0.444 0.461 0.817 0.85 1.117s0.839 0.472 1.35 0.517l9.267 0.867zM9.767 25.3c0.044 0 0.144-0.056 0.3-0.167l3.233-4.8c-1.089-0.111-1.944-0.372-2.567-0.783s-1.089-0.839-1.4-1.283v6.667c0 0.111 0.044 0.2 0.133 0.267s0.189 0.1 0.3 0.1zM24.667 25.333c0.578 0 1.056-0.194 1.433-0.583s0.567-0.861 0.567-1.417c0-0.578-0.189-1.056-0.567-1.433s-0.856-0.567-1.433-0.567c-0.556 0-1.028 0.189-1.417 0.567s-0.583 0.856-0.583 1.433c0 0.556 0.194 1.028 0.583 1.417s0.861 0.583 1.417 0.583z"></path>
    </symbol>
    <symbol id="icon-grass" viewBox="0 0 32 32">
      <path d="M2.667 26.667v-2.667h7.667c-0.489-1.889-1.417-3.517-2.783-4.883s-2.994-2.294-4.883-2.783c0.444-0.111 0.883-0.194 1.317-0.25s0.883-0.083 1.35-0.083c2.978 0 5.5 1.033 7.567 3.1s3.1 4.589 3.1 7.567h-13.333zM18.667 26.667c0-0.933-0.1-1.861-0.3-2.783s-0.489-1.806-0.867-2.65c0.933-1.578 2.206-2.844 3.817-3.8s3.394-1.433 5.35-1.433c0.467 0 0.917 0.028 1.35 0.083s0.872 0.139 1.317 0.25c-1.889 0.489-3.511 1.417-4.867 2.783s-2.289 2.994-2.8 4.883h7.667v2.667h-10.667zM16 18.7c0-1.444 0.267-2.8 0.8-4.067s1.267-2.383 2.2-3.35c0.933-0.967 2.028-1.739 3.283-2.317s2.594-0.889 4.017-0.933c-1.244 0.778-2.333 1.733-3.267 2.867s-1.656 2.4-2.167 3.8c-0.978 0.467-1.872 1.039-2.683 1.717s-1.539 1.439-2.183 2.283zM13.567 16.2c-0.267-0.2-0.533-0.389-0.8-0.567s-0.544-0.356-0.833-0.533c0-0.133 0.011-0.272 0.033-0.417s0.033-0.283 0.033-0.417c0-1.689-0.267-3.289-0.8-4.8s-1.289-2.889-2.267-4.133c1.467 0.6 2.739 1.461 3.817 2.583s1.906 2.417 2.483 3.883c-0.4 0.667-0.744 1.372-1.033 2.117s-0.5 1.506-0.633 2.283z"></path>
    </symbol>
    <symbol id="icon-instagram" viewBox="0 0 32 32">
      <path d="M15.997 11.554c-2.448 0-4.446 1.998-4.446 4.446s1.998 4.446 4.446 4.446c2.448 0 4.446-1.998 4.446-4.446s-1.998-4.446-4.446-4.446zM29.333 16c0-1.841 0.017-3.666-0.087-5.504-0.103-2.135-0.59-4.029-2.151-5.59-1.564-1.564-3.456-2.048-5.59-2.151-1.841-0.103-3.666-0.087-5.504-0.087-1.841 0-3.666-0.017-5.504 0.087-2.135 0.103-4.029 0.59-5.59 2.151-1.564 1.564-2.048 3.456-2.151 5.59-0.103 1.841-0.087 3.666-0.087 5.504s-0.017 3.666 0.087 5.504c0.103 2.135 0.59 4.029 2.151 5.59 1.564 1.564 3.456 2.048 5.59 2.151 1.841 0.103 3.666 0.087 5.504 0.087 1.841 0 3.666 0.017 5.504-0.087 2.135-0.103 4.029-0.59 5.59-2.151 1.564-1.564 2.048-3.456 2.151-5.59 0.107-1.838 0.087-3.662 0.087-5.504zM15.997 22.841c-3.786 0-6.841-3.055-6.841-6.841s3.055-6.841 6.841-6.841c3.786 0 6.841 3.055 6.841 6.841s-3.055 6.841-6.841 6.841zM23.119 10.476c-0.884 0-1.598-0.714-1.598-1.598s0.714-1.598 1.598-1.598 1.598 0.714 1.598 1.598c0 0.21-0.041 0.418-0.121 0.612s-0.198 0.37-0.346 0.519-0.325 0.266-0.519 0.346c-0.194 0.080-0.402 0.121-0.612 0.121z"></path>
    </symbol>
    <symbol id="icon-mail" viewBox="0 0 32 32">
      <path stroke-linejoin="round" stroke-linecap="round" stroke-miterlimit="4" stroke-width="2.6667" d="M4 9.333c0-0.707 0.281-1.386 0.781-1.886s1.178-0.781 1.886-0.781h18.667c0.707 0 1.385 0.281 1.886 0.781s0.781 1.178 0.781 1.886M4 9.333v13.333c0 0.707 0.281 1.385 0.781 1.886s1.178 0.781 1.886 0.781h18.667c0.707 0 1.385-0.281 1.886-0.781s0.781-1.178 0.781-1.886v-13.333M4 9.333l12 8 12-8"></path>
    </symbol>
    <symbol id="icon-plane" viewBox="0 0 32 32">
      <path d="M13.233 28.167l-3.3-6.133-6.133-3.3 2.367-2.333 4.833 0.833 3.4-3.4-10.567-4.5 2.8-2.867 12.833 2.267 4.133-4.133c0.511-0.511 1.144-0.767 1.9-0.767s1.389 0.256 1.9 0.767c0.511 0.511 0.767 1.139 0.767 1.883s-0.256 1.372-0.767 1.883l-4.167 4.167 2.267 12.8-2.833 2.833-4.533-10.567-3.4 3.4 0.867 4.8-2.367 2.367z"></path>
    </symbol>
    <symbol id="icon-twitter-x" viewBox="0 0 32 32">
      <path d="M24.15 1.333h4.704l-10.273 12.425 12.086 16.908h-9.463l-7.412-10.257-8.481 10.257h-4.705l10.988-13.291-11.594-16.042h9.704l6.699 9.373 7.747-9.373zM22.502 27.689h2.607l-16.823-23.533h-2.795l17.010 23.533z"></path>
    </symbol>
    <symbol id="icon-wifi" viewBox="0 0 32 32">
      <path stroke-linejoin="round" stroke-linecap="round" stroke-miterlimit="4" stroke-width="2.6667" d="M16.001 24h0.013M12.23 20.229c1-1 2.357-1.561 3.771-1.561s2.771 0.562 3.771 1.561M8.458 16.457c0.991-0.991 2.166-1.776 3.461-2.312s2.681-0.812 4.082-0.812c1.401 0 2.788 0.276 4.082 0.812s2.47 1.322 3.461 2.312M4.688 12.687c6.248-6.249 16.379-6.249 22.667 0"></path>
    </symbol>
  </defs>
</svg>